<?xml version="1.0" encoding="UTF-8"?>
<svg id="Capa_2" data-name="Capa 2" xmlns="http://www.w3.org/2000/svg" viewBox="0 0 280.36 209.11">
  <defs>
    <style>
      .cls-1 {
        fill: #33a67c;
      }

      .cls-2 {
        fill: #7145d6;
      }
    </style>
  </defs>
  <g id="Logo_mesa_nueva" data-name="Logo mesa nueva">
    <g id="LOGO_V.2" data-name="LOGO V.2">
      <path class="cls-2" d="M199.46,184.88c.37,1.46,4.71,7.58,5.85,9.66.53.98,1.33,1.69,1.12,2.99-1.65.12-16.21,6.89-20.75,8.04-56.47,14.3-96.13-17.04-134.32-53.26C20.72,123.27-13.82,82.05,5.68,37.07,25.84-9.47,88.53-11.12,118.15,26.74c1.43.35,4.03-4.13,5.02-5.09,51.01-49.72,129.83-7.5,110.78,62.64-9.24,34.05-50.78,72.42-77.86,94.24-1.72,1.39-9.6,7.81-10.91,8.12-2.43.58-19.73-5.7-19.76-7.16,25.69-20.84,54.08-42.93,74.29-69.33,18.18-23.75,30.26-57.71,3.88-80.92-23.27-20.47-52.76-10.58-71.54,10.13-3.12,3.44-5.41,9.32-10.39,10.49-9.89,2.32-12.22-5.87-17.44-11.75C68.01-2.66,6.55,24.44,20.02,77.98c7.31,29.04,44.37,62.79,67.11,81.58,17.33,14.32,35.89,28.27,58.51,32.61,18.66,3.58,36.85,1.1,53.82-7.3Z"/>
      <path class="cls-2" d="M95.03,143.76c-.95-2.9-4.1-4.62-5.96-7.01-4.32-5.56-6.84-13.3-7.97-20.19-9.56,8.68-25.79,3.01-27.21-9.8-1.84-16.59,19.25-41.9,35.94-43.79,5.72-.65,9.43-.07,15.32-1.14,10.85-1.97,17-2.12,27.87,0,6.18,1.2,9.44.44,15.42,1.04,15.9,1.6,29.97,19.11,35.05,33.28,6.45,17.98-10.43,31.78-25.79,20.41-1.55,9.37-6.31,21.22-14.56,26.57-5.83,3.77-9.74,2.52-15.82,3.16-1.89-.02-7.44-5.02-7.91-5.02-.27,0-3.17,2.63-4.31,3.24-1.47.78-2.94.9-4.23,1.78-2.09-.24-4.4.2-6.58-.07-3.05-.38-6.73-3.07-9.25-2.46ZM146.3,79.23c-4.8-7.15-10.66-11.8-19.37-13.21-10.08-1.64-22.97-.22-30.33,7.51-13.31,13.98-14.7,44.29-3.36,59.68,4.59,6.22,15.27,11.2,21.44,4.56,4.7-5.07-1.41-4.8-4.1-8.61-4.19-5.94-1.21-10.65,5.66-11.33,5.21-.52,13.88-.23,13.66,6.64-.2,5.99-7.56,8.96-7.69,9.59-.46,2.22,2.47,4.97,4.26,5.81,12.52,5.83,23.44-9.81,24.9-20.77-7.5,2.19-15.6,1.02-21.82-3.81-18.85-14.65-7.6-44.07,16.76-36.05ZM94.4,67.86c-4.39.71-9.31,1.3-13.25,3.51-7.85,4.4-22.21,23.56-21.96,32.75.29,10.37,13.09,15.6,19.02,6.7,2.58-3.88,2.12-12.15,3.08-17.16,1.85-9.7,6.42-18.6,13.1-25.8ZM144.4,68.49c7.42,7.33,12.18,18.01,13.75,28.32.93,6.14-.86,12.88,5.27,16.87,7.24,4.72,16.59-1.47,16.26-9.93-.48-12.21-20.44-38.68-35.28-35.26ZM137.95,83.18c-13.2.67-15.92,17.01-7.73,25.73,4.63,4.93,16.29,8.55,21.74,3.51,2.76-2.55.76-15.99-.41-19.77-1.74-5.61-7.67-9.77-13.6-9.47Z"/>
      <path class="cls-2" d="M214.02,193.1c-.08-.88-6.98-12.82-7.6-13.28,12.97-14.76,17.16-37.54,30.06-51.88,22.03-24.5,56.82.81,38.95,28.8-11.41,17.86-41.88,30.13-61.41,36.36ZM224.78,175.38c12.28-4.82,35.37-15.05,41.25-27.4,6.56-13.78-8.53-23.1-19.12-12.15-9.97,10.31-14.39,27.58-22.13,39.55Z"/>
      <path class="cls-1" d="M143.13,143.13c9.18,9.97-8.6,13.76-15.82,13.92-2.07-5.03-9.21-6.66-13.52-3.07-.45.37-2.88,3.47-2.94,3.7-4.38-1.57-18.71-3.55-18.35-9.76.06-1.05,1.47-3.9,2.52-4.16,2.52-.61,6.2,2.08,9.25,2.46,2.18.27,4.49-.17,6.58.07,8.24.93,8.36.85,16.46,0,6.08-.64,10,.61,15.82-3.16Z"/>
      <path class="cls-2" d="M127.31,157.04c2.2,5.37-1.35,11.71-7.3,12.04-6.1.35-10.71-5.56-9.15-11.41.06-.23,2.49-3.33,2.94-3.7,4.31-3.59,11.45-1.96,13.52,3.07ZM121.45,157.21c-3.54-3.27-8.32,4.06-3.46,6.33,4.01,1.88,6.16-3.84,3.46-6.33Z"/>
      <path class="cls-1" d="M206.42,179.82c.61.46,7.52,12.41,7.6,13.28.6,6.74-4.53,4.21-7.6,4.43.22-1.31-.58-2.01-1.12-2.99-1.13-2.08-5.48-8.19-5.85-9.66-.99-3.95,4.09-7.22,6.96-5.06Z"/>
      <path class="cls-1" d="M121.45,157.21c2.7,2.49.55,8.21-3.46,6.33-4.86-2.28-.08-9.6,3.46-6.33Z"/>
      <path class="cls-2" d="M101.18,97.06c6.2-.97,7.41,9.59,1.09,10-5.9.38-6.95-9.08-1.09-10Z"/>
      <path class="cls-2" d="M137.86,97.11c6.02-.2,6.34,10.01-.13,9.89-5.35-.1-5.88-9.69.13-9.89Z"/>
    </g>
  </g>
</svg>