<?xml version="1.0" encoding="UTF-8"?>
<svg id="Capa_2" data-name="Capa 2" xmlns="http://www.w3.org/2000/svg" viewBox="0 0 1011.81 209.11">
  <defs>
    <style>
      .cls-1 {
        fill: #33a67c;
      }

      .cls-2 {
        fill: #7145d6;
      }
    </style>
  </defs>
  <g id="Logo_mesa_nueva" data-name="Logo mesa nueva">
    <g id="LOGO_V.2" data-name="LOGO V.2">
      <g>
        <g>
          <path class="cls-1" d="M428.18,54.15v118.04h-32.82v-65.13l-22.27,65.13h-27.46l-22.44-65.63v65.63h-32.82V54.15h39.68l29.64,76.69,28.97-76.69h39.51Z"/>
          <path class="cls-1" d="M449.53,64.79c-3.52-3.18-5.27-7.17-5.27-11.97s1.76-8.98,5.27-12.22c3.52-3.24,8.18-4.86,13.98-4.86s10.3,1.62,13.81,4.86c3.52,3.24,5.27,7.31,5.27,12.22s-1.76,8.79-5.27,11.97-8.12,4.77-13.81,4.77-10.46-1.59-13.98-4.77ZM479.75,78.27v93.93h-32.82v-93.93h32.82Z"/>
        </g>
        <g>
          <path class="cls-2" d="M584.75,113.01c-3.29,5.86-8.26,10.55-14.9,14.06-6.64,3.52-14.76,5.27-24.36,5.27h-16.24v39.85h-32.82V54.16h49.06c9.49,0,17.55,1.67,24.19,5.02,6.64,3.35,11.64,7.98,14.99,13.9,3.35,5.92,5.02,12.73,5.02,20.43,0,7.14-1.65,13.65-4.94,19.51ZM556.21,93.5c0-8.59-4.63-12.89-13.9-12.89h-13.06v25.62h13.06c9.26,0,13.9-4.24,13.9-12.73Z"/>
          <path class="cls-2" d="M602.83,99.7c3.52-7.25,8.31-12.83,14.4-16.74,6.08-3.91,12.86-5.86,20.34-5.86,6.47,0,12.06,1.29,16.74,3.85,4.69,2.57,8.31,6.03,10.88,10.38v-13.06h32.82v93.93h-32.82v-13.06c-2.57,4.35-6.22,7.81-10.97,10.38-4.75,2.57-10.3,3.85-16.66,3.85-7.48,0-14.26-1.95-20.34-5.86-6.09-3.91-10.88-9.51-14.4-16.83-3.52-7.31-5.27-15.82-5.27-25.53s1.76-18.19,5.27-25.45ZM660.26,110.92c-3.29-3.46-7.34-5.19-12.14-5.19s-8.99,1.7-12.22,5.11c-3.24,3.41-4.86,8.18-4.86,14.31s1.62,10.8,4.86,14.32c3.24,3.52,7.31,5.27,12.22,5.27s8.85-1.73,12.14-5.19c3.29-3.46,4.94-8.26,4.94-14.4s-1.65-10.77-4.94-14.23Z"/>
          <path class="cls-2" d="M734.1,169.1c-6.64-2.85-11.89-6.75-15.74-11.72-3.85-4.97-6-10.57-6.45-16.83h31.81c.45,3.01,1.84,5.36,4.19,7.03,2.34,1.67,5.25,2.51,8.71,2.51,2.68,0,4.8-.56,6.36-1.67,1.56-1.11,2.34-2.57,2.34-4.35,0-2.34-1.28-4.07-3.85-5.19-2.57-1.11-6.81-2.34-12.72-3.68-6.7-1.34-12.28-2.85-16.74-4.52-4.47-1.67-8.35-4.41-11.64-8.2-3.29-3.79-4.94-8.93-4.94-15.4,0-5.58,1.51-10.63,4.52-15.15,3.01-4.52,7.45-8.12,13.31-10.8,5.86-2.68,12.92-4.02,21.18-4.02,12.28,0,21.93,3.01,28.97,9.04,7.03,6.03,11.11,13.95,12.22,23.78h-29.64c-.56-3.01-1.87-5.33-3.93-6.95-2.07-1.62-4.83-2.43-8.29-2.43-2.68,0-4.72.5-6.11,1.51-1.4,1-2.09,2.4-2.09,4.19,0,2.23,1.28,3.93,3.85,5.11,2.57,1.17,6.7,2.37,12.39,3.6,6.81,1.45,12.47,3.07,16.99,4.86,4.52,1.79,8.48,4.66,11.89,8.62,3.4,3.96,5.11,9.35,5.11,16.16,0,5.47-1.59,10.38-4.77,14.73-3.18,4.35-7.7,7.79-13.56,10.3s-12.75,3.77-20.68,3.77c-8.48,0-16.05-1.42-22.69-4.27Z"/>
          <path class="cls-2" d="M901.12,131.85h-62.12c.33,5.14,1.76,8.96,4.27,11.47,2.51,2.51,5.72,3.77,9.63,3.77,5.47,0,9.38-2.45,11.72-7.37h34.99c-1.45,6.47-4.27,12.25-8.46,17.33-4.19,5.08-9.46,9.07-15.82,11.97-6.36,2.9-13.4,4.35-21.1,4.35-9.27,0-17.5-1.95-24.7-5.86-7.2-3.91-12.84-9.49-16.91-16.74-4.08-7.25-6.11-15.79-6.11-25.62s2.01-18.33,6.03-25.53c4.02-7.2,9.63-12.75,16.83-16.66,7.2-3.91,15.49-5.86,24.86-5.86s17.47,1.9,24.61,5.69c7.14,3.8,12.73,9.24,16.74,16.32,4.02,7.09,6.03,15.43,6.03,25.03,0,2.57-.17,5.14-.5,7.7ZM868.13,115.94c0-4.02-1.34-7.17-4.02-9.46-2.68-2.29-6.03-3.43-10.05-3.43s-7.31,1.09-9.88,3.26c-2.57,2.18-4.24,5.39-5.02,9.63h28.97Z"/>
          <path class="cls-2" d="M937.22,167.51c-7.42-3.91-13.26-9.49-17.5-16.74-4.24-7.25-6.36-15.79-6.36-25.62s2.15-18.19,6.45-25.45c4.3-7.25,10.16-12.83,17.58-16.74,7.42-3.91,15.82-5.86,25.2-5.86s17.77,1.95,25.2,5.86c7.42,3.91,13.28,9.49,17.58,16.74,4.3,7.26,6.45,15.74,6.45,25.45s-2.15,18.22-6.45,25.53c-4.3,7.31-10.19,12.92-17.66,16.83-7.48,3.91-15.91,5.86-25.28,5.86s-17.78-1.95-25.2-5.86ZM973.89,139.8c3.07-3.4,4.6-8.29,4.6-14.65s-1.54-11.22-4.6-14.57c-3.07-3.35-6.84-5.02-11.3-5.02s-8.2,1.67-11.22,5.02-4.52,8.2-4.52,14.57,1.45,11.39,4.35,14.73c2.9,3.35,6.64,5.02,11.22,5.02s8.4-1.7,11.47-5.11Z"/>
        </g>
      </g>
      <g id="LOGO_V.2-2" data-name="LOGO V.2">
        <path class="cls-2" d="M199.46,184.88c.37,1.46,4.71,7.58,5.85,9.66.53.98,1.33,1.69,1.12,2.99-1.65.12-16.21,6.89-20.75,8.04-56.47,14.3-96.13-17.04-134.32-53.26C20.72,123.27-13.82,82.05,5.68,37.07,25.84-9.47,88.53-11.12,118.15,26.74c1.43.35,4.03-4.13,5.02-5.09,51.01-49.72,129.83-7.5,110.78,62.64-9.24,34.05-50.78,72.42-77.86,94.24-1.72,1.39-9.6,7.81-10.91,8.12-2.43.58-19.73-5.7-19.76-7.16,25.69-20.84,54.08-42.93,74.29-69.33,18.18-23.75,30.26-57.71,3.88-80.92-23.27-20.47-52.76-10.58-71.54,10.13-3.12,3.44-5.41,9.32-10.39,10.49-9.89,2.32-12.22-5.87-17.44-11.75C68.01-2.66,6.55,24.44,20.02,77.98c7.31,29.04,44.37,62.79,67.11,81.58,17.33,14.32,35.89,28.27,58.51,32.61,18.66,3.58,36.85,1.1,53.82-7.3Z"/>
        <path class="cls-2" d="M95.03,143.76c-.95-2.9-4.1-4.62-5.96-7.01-4.32-5.56-6.84-13.3-7.97-20.19-9.56,8.68-25.79,3.01-27.21-9.8-1.84-16.59,19.25-41.9,35.94-43.79,5.72-.65,9.43-.07,15.32-1.14,10.85-1.97,17-2.12,27.87,0,6.18,1.2,9.44.44,15.42,1.04,15.9,1.6,29.97,19.11,35.05,33.28,6.45,17.98-10.43,31.78-25.79,20.41-1.55,9.37-6.31,21.22-14.56,26.57-5.83,3.77-9.74,2.52-15.82,3.16-1.89-.02-7.44-5.02-7.91-5.02-.27,0-3.17,2.63-4.31,3.24-1.47.78-2.94.9-4.23,1.78-2.09-.24-4.4.2-6.58-.07-3.05-.38-6.73-3.07-9.25-2.46ZM146.3,79.23c-4.8-7.15-10.66-11.8-19.37-13.21-10.08-1.64-22.97-.22-30.33,7.51-13.31,13.98-14.7,44.29-3.36,59.68,4.59,6.22,15.27,11.2,21.44,4.56,4.7-5.07-1.41-4.8-4.1-8.61-4.19-5.94-1.21-10.65,5.66-11.33,5.21-.52,13.88-.23,13.66,6.64-.2,5.99-7.56,8.96-7.69,9.59-.46,2.22,2.47,4.97,4.26,5.81,12.52,5.83,23.44-9.81,24.9-20.77-7.5,2.19-15.6,1.02-21.82-3.81-18.85-14.65-7.6-44.07,16.76-36.05ZM94.4,67.86c-4.39.71-9.31,1.3-13.25,3.51-7.85,4.4-22.21,23.56-21.96,32.75.29,10.37,13.09,15.6,19.02,6.7,2.58-3.88,2.12-12.15,3.08-17.16,1.85-9.7,6.42-18.6,13.1-25.8ZM144.4,68.49c7.42,7.33,12.18,18.01,13.75,28.32.93,6.14-.86,12.88,5.27,16.87,7.24,4.72,16.59-1.47,16.26-9.93-.48-12.21-20.44-38.68-35.28-35.26ZM137.95,83.18c-13.2.67-15.92,17.01-7.73,25.73,4.63,4.93,16.29,8.55,21.74,3.51,2.76-2.55.76-15.99-.41-19.77-1.74-5.61-7.67-9.77-13.6-9.47Z"/>
        <path class="cls-2" d="M214.02,193.1c-.08-.88-6.98-12.82-7.6-13.28,12.97-14.76,17.16-37.54,30.06-51.88,22.03-24.5,56.82.81,38.95,28.8-11.41,17.86-41.88,30.13-61.41,36.36ZM224.78,175.38c12.28-4.82,35.37-15.05,41.25-27.4,6.56-13.78-8.53-23.1-19.12-12.15-9.97,10.31-14.39,27.58-22.13,39.55Z"/>
        <path class="cls-1" d="M143.13,143.13c9.18,9.97-8.6,13.76-15.82,13.92-2.07-5.03-9.21-6.66-13.52-3.07-.45.37-2.88,3.47-2.94,3.7-4.38-1.57-18.71-3.55-18.35-9.76.06-1.05,1.47-3.9,2.52-4.16,2.52-.61,6.2,2.08,9.25,2.46,2.18.27,4.49-.17,6.58.07,8.24.93,8.36.85,16.46,0,6.08-.64,10,.61,15.82-3.16Z"/>
        <path class="cls-2" d="M127.31,157.04c2.2,5.37-1.35,11.71-7.3,12.04-6.1.35-10.71-5.56-9.15-11.41.06-.23,2.49-3.33,2.94-3.7,4.31-3.59,11.45-1.96,13.52,3.07ZM121.45,157.21c-3.54-3.27-8.32,4.06-3.46,6.33,4.01,1.88,6.16-3.84,3.46-6.33Z"/>
        <path class="cls-1" d="M206.42,179.82c.61.46,7.52,12.41,7.6,13.28.6,6.74-4.53,4.21-7.6,4.43.22-1.31-.58-2.01-1.12-2.99-1.13-2.08-5.48-8.19-5.85-9.66-.99-3.95,4.09-7.22,6.96-5.06Z"/>
        <path class="cls-1" d="M121.45,157.21c2.7,2.49.55,8.21-3.46,6.33-4.86-2.28-.08-9.6,3.46-6.33Z"/>
        <path class="cls-2" d="M101.18,97.06c6.2-.97,7.41,9.59,1.09,10-5.9.38-6.95-9.08-1.09-10Z"/>
        <path class="cls-2" d="M137.86,97.11c6.02-.2,6.34,10.01-.13,9.89-5.35-.1-5.88-9.69.13-9.89Z"/>
      </g>
    </g>
  </g>
</svg>